<mxfile host="65bd71144e">
    <diagram id="y58uaLwMiE6wMkB13dDo" name="第 1 页">
        <mxGraphModel dx="788" dy="351" grid="1" gridSize="10" guides="1" tooltips="1" connect="1" arrows="1" fold="1" page="1" pageScale="1" pageWidth="827" pageHeight="1169" math="0" shadow="0">
            <root>
                <mxCell id="0"/>
                <mxCell id="1" parent="0"/>
                <mxCell id="3" value="&lt;font color=&quot;#000000&quot; style=&quot;font-size: 14px&quot;&gt;Resource Manager&lt;/font&gt;" style="rounded=1;whiteSpace=wrap;html=1;fillColor=#cdeb8b;strokeColor=#36393d;" parent="1" vertex="1">
                    <mxGeometry x="365" y="261" width="120" height="60" as="geometry"/>
                </mxCell>
                <mxCell id="4" value="&lt;font color=&quot;#000000&quot;&gt;Client1&lt;/font&gt;" style="ellipse;whiteSpace=wrap;html=1;fillColor=#b0e3e6;strokeColor=#0e8088;" parent="1" vertex="1">
                    <mxGeometry x="300" y="401" width="100" height="60" as="geometry"/>
                </mxCell>
                <mxCell id="6" value="Client2" style="ellipse;whiteSpace=wrap;html=1;" parent="1" vertex="1">
                    <mxGeometry x="443" y="401" width="100" height="60" as="geometry"/>
                </mxCell>
                <mxCell id="17" value="" style="group" parent="1" vertex="1" connectable="0">
                    <mxGeometry x="30" y="41" width="250" height="130" as="geometry"/>
                </mxCell>
                <mxCell id="8" value="" style="rounded=0;whiteSpace=wrap;html=1;fillColor=#60a917;strokeColor=#2D7600;fontColor=#ffffff;" parent="17" vertex="1">
                    <mxGeometry width="250" height="130" as="geometry"/>
                </mxCell>
                <mxCell id="9" value="NodeManager" style="rounded=0;whiteSpace=wrap;html=1;fillColor=#1ba1e2;strokeColor=#006EAF;fontColor=#ffffff;" parent="17" vertex="1">
                    <mxGeometry x="60" y="10" width="130" height="30" as="geometry"/>
                </mxCell>
                <mxCell id="12" value="Container&lt;br&gt;&lt;br&gt;&lt;br&gt;" style="rounded=0;whiteSpace=wrap;html=1;fillColor=#e3c800;strokeColor=#B09500;fontColor=#000000;" parent="17" vertex="1">
                    <mxGeometry x="10" y="60" width="109" height="50" as="geometry"/>
                </mxCell>
                <mxCell id="49" style="edgeStyle=orthogonalEdgeStyle;rounded=0;orthogonalLoop=1;jettySize=auto;html=1;exitX=0.5;exitY=0;exitDx=0;exitDy=0;entryX=0.25;entryY=0;entryDx=0;entryDy=0;dashed=1;strokeColor=#00FFFF;strokeWidth=2;" parent="17" source="13" target="15" edge="1">
                    <mxGeometry relative="1" as="geometry"/>
                </mxCell>
                <mxCell id="13" value="&lt;font color=&quot;#000000&quot;&gt;AM&lt;/font&gt;" style="rounded=0;whiteSpace=wrap;html=1;fillColor=#cdeb8b;strokeColor=#36393d;" parent="17" vertex="1">
                    <mxGeometry x="35" y="85" width="59" height="20" as="geometry"/>
                </mxCell>
                <mxCell id="15" value="Container&lt;br&gt;&lt;br&gt;&lt;br&gt;" style="rounded=0;whiteSpace=wrap;html=1;fillColor=#e3c800;strokeColor=#B09500;fontColor=#000000;" parent="17" vertex="1">
                    <mxGeometry x="130" y="60" width="109" height="50" as="geometry"/>
                </mxCell>
                <mxCell id="16" value="&lt;font color=&quot;#000000&quot;&gt;MapTask&lt;/font&gt;" style="rounded=0;whiteSpace=wrap;html=1;fillColor=#cdeb8b;strokeColor=#36393d;" parent="17" vertex="1">
                    <mxGeometry x="155" y="85" width="59" height="20" as="geometry"/>
                </mxCell>
                <mxCell id="18" value="" style="group" parent="1" vertex="1" connectable="0">
                    <mxGeometry x="300" y="41" width="250" height="130" as="geometry"/>
                </mxCell>
                <mxCell id="19" value="" style="rounded=0;whiteSpace=wrap;html=1;fillColor=#60a917;strokeColor=#2D7600;fontColor=#ffffff;" parent="18" vertex="1">
                    <mxGeometry width="250" height="130" as="geometry"/>
                </mxCell>
                <mxCell id="20" value="NodeManager" style="rounded=0;whiteSpace=wrap;html=1;fillColor=#1ba1e2;strokeColor=#006EAF;fontColor=#ffffff;" parent="18" vertex="1">
                    <mxGeometry x="60" y="10" width="130" height="30" as="geometry"/>
                </mxCell>
                <mxCell id="21" value="Container&lt;br&gt;&lt;br&gt;&lt;br&gt;" style="rounded=0;whiteSpace=wrap;html=1;fillColor=#e3c800;strokeColor=#B09500;fontColor=#000000;" parent="18" vertex="1">
                    <mxGeometry x="10" y="60" width="109" height="50" as="geometry"/>
                </mxCell>
                <mxCell id="22" value="&lt;font color=&quot;#000000&quot;&gt;AM&lt;/font&gt;" style="rounded=0;whiteSpace=wrap;html=1;fillColor=#cdeb8b;strokeColor=#36393d;" parent="18" vertex="1">
                    <mxGeometry x="35" y="85" width="59" height="20" as="geometry"/>
                </mxCell>
                <mxCell id="23" value="Container&lt;br&gt;&lt;br&gt;&lt;br&gt;" style="rounded=0;whiteSpace=wrap;html=1;fillColor=#e3c800;strokeColor=#B09500;fontColor=#000000;" parent="18" vertex="1">
                    <mxGeometry x="130" y="60" width="109" height="50" as="geometry"/>
                </mxCell>
                <mxCell id="24" value="&lt;font color=&quot;#000000&quot;&gt;ReduceTask&lt;/font&gt;" style="rounded=0;whiteSpace=wrap;html=1;fillColor=#cdeb8b;strokeColor=#36393d;" parent="18" vertex="1">
                    <mxGeometry x="149" y="85" width="74" height="20" as="geometry"/>
                </mxCell>
                <mxCell id="25" value="" style="group" parent="1" vertex="1" connectable="0">
                    <mxGeometry x="570" y="41" width="250" height="130" as="geometry"/>
                </mxCell>
                <mxCell id="26" value="" style="rounded=0;whiteSpace=wrap;html=1;fillColor=#60a917;strokeColor=#2D7600;fontColor=#ffffff;" parent="25" vertex="1">
                    <mxGeometry width="250" height="130" as="geometry"/>
                </mxCell>
                <mxCell id="27" value="NodeManager" style="rounded=0;whiteSpace=wrap;html=1;fillColor=#1ba1e2;strokeColor=#006EAF;fontColor=#ffffff;" parent="25" vertex="1">
                    <mxGeometry x="60" y="10" width="130" height="30" as="geometry"/>
                </mxCell>
                <mxCell id="28" value="Container&lt;br&gt;&lt;br&gt;&lt;br&gt;" style="rounded=0;whiteSpace=wrap;html=1;fillColor=#e3c800;strokeColor=#B09500;fontColor=#000000;" parent="25" vertex="1">
                    <mxGeometry x="10" y="60" width="109" height="50" as="geometry"/>
                </mxCell>
                <mxCell id="29" value="&lt;font color=&quot;#000000&quot;&gt;MapTask&lt;/font&gt;" style="rounded=0;whiteSpace=wrap;html=1;fillColor=#cdeb8b;strokeColor=#36393d;" parent="25" vertex="1">
                    <mxGeometry x="35" y="85" width="59" height="20" as="geometry"/>
                </mxCell>
                <mxCell id="30" value="Container&lt;br&gt;&lt;br&gt;&lt;br&gt;" style="rounded=0;whiteSpace=wrap;html=1;fillColor=#e3c800;strokeColor=#B09500;fontColor=#000000;" parent="25" vertex="1">
                    <mxGeometry x="130" y="60" width="109" height="50" as="geometry"/>
                </mxCell>
                <mxCell id="31" value="&lt;span style=&quot;color: rgb(0 , 0 , 0)&quot;&gt;ReduceTask&lt;/span&gt;" style="rounded=0;whiteSpace=wrap;html=1;fillColor=#cdeb8b;strokeColor=#36393d;" parent="25" vertex="1">
                    <mxGeometry x="149" y="85" width="74" height="20" as="geometry"/>
                </mxCell>
                <mxCell id="32" value="" style="endArrow=classic;html=1;exitX=0.5;exitY=0;exitDx=0;exitDy=0;entryX=0.25;entryY=1;entryDx=0;entryDy=0;" parent="1" source="4" target="3" edge="1">
                    <mxGeometry width="50" height="50" relative="1" as="geometry">
                        <mxPoint x="400" y="271" as="sourcePoint"/>
                        <mxPoint x="450" y="221" as="targetPoint"/>
                        <Array as="points"/>
                    </mxGeometry>
                </mxCell>
                <mxCell id="33" value="" style="endArrow=classic;html=1;entryX=0.75;entryY=1;entryDx=0;entryDy=0;exitX=0.5;exitY=0;exitDx=0;exitDy=0;" parent="1" source="6" target="3" edge="1">
                    <mxGeometry width="50" height="50" relative="1" as="geometry">
                        <mxPoint x="500" y="401" as="sourcePoint"/>
                        <mxPoint x="379.96000000000004" y="331" as="targetPoint"/>
                    </mxGeometry>
                </mxCell>
                <mxCell id="34" value="作业提交" style="text;html=1;align=center;verticalAlign=middle;resizable=0;points=[];autosize=1;strokeColor=none;" parent="1" vertex="1">
                    <mxGeometry x="460" y="351" width="60" height="20" as="geometry"/>
                </mxCell>
                <mxCell id="36" value="" style="endArrow=classic;startArrow=classic;html=1;exitX=0;exitY=0;exitDx=0;exitDy=0;entryX=1;entryY=0.5;entryDx=0;entryDy=0;strokeColor=#FFFF33;" parent="1" source="3" target="9" edge="1">
                    <mxGeometry width="50" height="50" relative="1" as="geometry">
                        <mxPoint x="400" y="271" as="sourcePoint"/>
                        <mxPoint x="450" y="221" as="targetPoint"/>
                    </mxGeometry>
                </mxCell>
                <mxCell id="37" value="" style="endArrow=classic;startArrow=classic;html=1;exitX=0;exitY=0.5;exitDx=0;exitDy=0;entryX=0.75;entryY=1;entryDx=0;entryDy=0;strokeColor=#00FFFF;" parent="1" source="3" target="12" edge="1">
                    <mxGeometry width="50" height="50" relative="1" as="geometry">
                        <mxPoint x="400" y="271" as="sourcePoint"/>
                        <mxPoint x="450" y="221" as="targetPoint"/>
                    </mxGeometry>
                </mxCell>
                <mxCell id="38" value="" style="endArrow=classic;startArrow=classic;html=1;exitX=0;exitY=0;exitDx=0;exitDy=0;entryX=0.5;entryY=1;entryDx=0;entryDy=0;strokeColor=#FFFF33;" parent="1" edge="1">
                    <mxGeometry width="50" height="50" relative="1" as="geometry">
                        <mxPoint x="424" y="261" as="sourcePoint"/>
                        <mxPoint x="425" y="81" as="targetPoint"/>
                    </mxGeometry>
                </mxCell>
                <mxCell id="40" value="" style="endArrow=classic;startArrow=classic;html=1;exitX=0.25;exitY=0;exitDx=0;exitDy=0;entryX=0.5;entryY=1;entryDx=0;entryDy=0;strokeColor=#00FFFF;" parent="1" source="3" target="21" edge="1">
                    <mxGeometry width="50" height="50" relative="1" as="geometry">
                        <mxPoint x="400" y="261" as="sourcePoint"/>
                        <mxPoint x="156.75" y="121" as="targetPoint"/>
                    </mxGeometry>
                </mxCell>
                <mxCell id="41" value="" style="endArrow=classic;startArrow=classic;html=1;exitX=0.75;exitY=0;exitDx=0;exitDy=0;entryX=0;entryY=0.5;entryDx=0;entryDy=0;strokeColor=#FFFF33;" parent="1" source="3" target="27" edge="1">
                    <mxGeometry width="50" height="50" relative="1" as="geometry">
                        <mxPoint x="543" y="321" as="sourcePoint"/>
                        <mxPoint x="544" y="141" as="targetPoint"/>
                    </mxGeometry>
                </mxCell>
                <mxCell id="43" value="" style="endArrow=classic;startArrow=classic;html=1;exitX=1;exitY=0.5;exitDx=0;exitDy=0;entryX=0.5;entryY=1;entryDx=0;entryDy=0;strokeColor=#00FFFF;" parent="1" source="3" target="28" edge="1">
                    <mxGeometry width="50" height="50" relative="1" as="geometry">
                        <mxPoint x="590.5" y="351" as="sourcePoint"/>
                        <mxPoint x="560" y="241" as="targetPoint"/>
                    </mxGeometry>
                </mxCell>
                <mxCell id="45" style="edgeStyle=orthogonalEdgeStyle;rounded=0;orthogonalLoop=1;jettySize=auto;html=1;exitX=0.25;exitY=0;exitDx=0;exitDy=0;entryX=0.75;entryY=0;entryDx=0;entryDy=0;strokeColor=#00FFFF;dashed=1;strokeWidth=2;" parent="1" source="13" target="23" edge="1">
                    <mxGeometry relative="1" as="geometry">
                        <Array as="points">
                            <mxPoint x="67" y="126"/>
                            <mxPoint x="67" y="31"/>
                            <mxPoint x="512" y="31"/>
                        </Array>
                    </mxGeometry>
                </mxCell>
                <mxCell id="50" style="edgeStyle=orthogonalEdgeStyle;rounded=0;orthogonalLoop=1;jettySize=auto;html=1;exitX=0.5;exitY=0;exitDx=0;exitDy=0;entryX=0.25;entryY=0;entryDx=0;entryDy=0;dashed=1;strokeColor=#00FFFF;strokeWidth=2;" parent="1" source="21" target="28" edge="1">
                    <mxGeometry relative="1" as="geometry">
                        <Array as="points">
                            <mxPoint x="365" y="41"/>
                            <mxPoint x="607" y="41"/>
                        </Array>
                    </mxGeometry>
                </mxCell>
                <mxCell id="51" style="edgeStyle=orthogonalEdgeStyle;rounded=0;orthogonalLoop=1;jettySize=auto;html=1;exitX=0.75;exitY=0;exitDx=0;exitDy=0;entryX=0.75;entryY=0;entryDx=0;entryDy=0;dashed=1;strokeColor=#00FFFF;strokeWidth=2;" parent="1" source="21" target="30" edge="1">
                    <mxGeometry relative="1" as="geometry">
                        <Array as="points">
                            <mxPoint x="392" y="21"/>
                            <mxPoint x="782" y="21"/>
                        </Array>
                    </mxGeometry>
                </mxCell>
            </root>
        </mxGraphModel>
    </diagram>
    <diagram id="S19aqjwdM4_3fOYMu_ZT" name="第 2 页">
        <mxGraphModel dx="788" dy="351" grid="1" gridSize="10" guides="1" tooltips="1" connect="1" arrows="1" fold="1" page="1" pageScale="1" pageWidth="827" pageHeight="1169" math="0" shadow="0">
            <root>
                <mxCell id="Zhd3SYQkjJXWE5ierRQQ-0"/>
                <mxCell id="Zhd3SYQkjJXWE5ierRQQ-1" parent="Zhd3SYQkjJXWE5ierRQQ-0"/>
                <mxCell id="Zhd3SYQkjJXWE5ierRQQ-2" value="&lt;font style=&quot;font-size: 15px&quot; color=&quot;#000000&quot;&gt;Hadoop01&lt;/font&gt;" style="rounded=0;whiteSpace=wrap;html=1;fillColor=#fad7ac;strokeColor=#b46504;" parent="Zhd3SYQkjJXWE5ierRQQ-1" vertex="1">
                    <mxGeometry x="290" y="100" width="120" height="40" as="geometry"/>
                </mxCell>
                <mxCell id="Zhd3SYQkjJXWE5ierRQQ-3" value="&lt;font style=&quot;font-size: 15px&quot; color=&quot;#000000&quot;&gt;Hadoop04&lt;/font&gt;" style="rounded=0;whiteSpace=wrap;html=1;fillColor=#fad7ac;strokeColor=#b46504;" parent="Zhd3SYQkjJXWE5ierRQQ-1" vertex="1">
                    <mxGeometry x="290" y="280" width="120" height="40" as="geometry"/>
                </mxCell>
                <mxCell id="Zhd3SYQkjJXWE5ierRQQ-4" value="&lt;font style=&quot;font-size: 15px&quot; color=&quot;#000000&quot;&gt;Hadoop02&lt;br&gt;&lt;/font&gt;" style="rounded=0;whiteSpace=wrap;html=1;fillColor=#fad7ac;strokeColor=#b46504;" parent="Zhd3SYQkjJXWE5ierRQQ-1" vertex="1">
                    <mxGeometry x="290" y="160" width="120" height="40" as="geometry"/>
                </mxCell>
                <mxCell id="Zhd3SYQkjJXWE5ierRQQ-5" value="&lt;font style=&quot;font-size: 15px&quot; color=&quot;#000000&quot;&gt;Hadoop03&lt;/font&gt;" style="rounded=0;whiteSpace=wrap;html=1;fillColor=#fad7ac;strokeColor=#b46504;" parent="Zhd3SYQkjJXWE5ierRQQ-1" vertex="1">
                    <mxGeometry x="290" y="220" width="120" height="40" as="geometry"/>
                </mxCell>
                <mxCell id="Zhd3SYQkjJXWE5ierRQQ-6" value="&lt;font color=&quot;#000000&quot;&gt;&lt;span style=&quot;font-size: 15px&quot;&gt;......&lt;/span&gt;&lt;/font&gt;" style="rounded=0;whiteSpace=wrap;html=1;fillColor=#fad7ac;strokeColor=#b46504;" parent="Zhd3SYQkjJXWE5ierRQQ-1" vertex="1">
                    <mxGeometry x="290" y="340" width="120" height="40" as="geometry"/>
                </mxCell>
                <mxCell id="Zhd3SYQkjJXWE5ierRQQ-7" value="&lt;font style=&quot;font-size: 15px&quot; color=&quot;#000000&quot;&gt;数据&lt;/font&gt;" style="shape=cylinder3;whiteSpace=wrap;html=1;boundedLbl=1;backgroundOutline=1;size=15;fillColor=#b1ddf0;strokeColor=#10739e;" parent="Zhd3SYQkjJXWE5ierRQQ-1" vertex="1">
                    <mxGeometry x="100" y="200" width="60" height="80" as="geometry"/>
                </mxCell>
                <mxCell id="Zhd3SYQkjJXWE5ierRQQ-8" value="&lt;font style=&quot;font-size: 15px&quot;&gt;汇总处理&lt;/font&gt;" style="rounded=1;whiteSpace=wrap;html=1;gradientColor=#ea6b66;fillColor=#f8cecc;strokeColor=#b85450;" parent="Zhd3SYQkjJXWE5ierRQQ-1" vertex="1">
                    <mxGeometry x="557" y="215" width="110" height="50" as="geometry"/>
                </mxCell>
                <mxCell id="Zhd3SYQkjJXWE5ierRQQ-9" value="" style="endArrow=classic;html=1;strokeColor=#00FFFF;strokeWidth=2;entryX=0;entryY=0.5;entryDx=0;entryDy=0;exitX=1;exitY=0.5;exitDx=0;exitDy=0;exitPerimeter=0;" parent="Zhd3SYQkjJXWE5ierRQQ-1" source="Zhd3SYQkjJXWE5ierRQQ-7" target="Zhd3SYQkjJXWE5ierRQQ-2" edge="1">
                    <mxGeometry width="50" height="50" relative="1" as="geometry">
                        <mxPoint x="170" y="240" as="sourcePoint"/>
                        <mxPoint x="220" y="190" as="targetPoint"/>
                    </mxGeometry>
                </mxCell>
                <mxCell id="Zhd3SYQkjJXWE5ierRQQ-10" value="" style="endArrow=classic;html=1;strokeColor=#00FFFF;strokeWidth=2;entryX=0;entryY=0.5;entryDx=0;entryDy=0;exitX=1;exitY=0.5;exitDx=0;exitDy=0;exitPerimeter=0;" parent="Zhd3SYQkjJXWE5ierRQQ-1" source="Zhd3SYQkjJXWE5ierRQQ-7" target="Zhd3SYQkjJXWE5ierRQQ-4" edge="1">
                    <mxGeometry width="50" height="50" relative="1" as="geometry">
                        <mxPoint x="180" y="250" as="sourcePoint"/>
                        <mxPoint x="300" y="130" as="targetPoint"/>
                    </mxGeometry>
                </mxCell>
                <mxCell id="Zhd3SYQkjJXWE5ierRQQ-11" value="" style="endArrow=classic;html=1;strokeColor=#00FFFF;strokeWidth=2;entryX=0;entryY=0.5;entryDx=0;entryDy=0;exitX=1;exitY=0.5;exitDx=0;exitDy=0;exitPerimeter=0;" parent="Zhd3SYQkjJXWE5ierRQQ-1" source="Zhd3SYQkjJXWE5ierRQQ-7" target="Zhd3SYQkjJXWE5ierRQQ-5" edge="1">
                    <mxGeometry width="50" height="50" relative="1" as="geometry">
                        <mxPoint x="180" y="250" as="sourcePoint"/>
                        <mxPoint x="300" y="190" as="targetPoint"/>
                    </mxGeometry>
                </mxCell>
                <mxCell id="Zhd3SYQkjJXWE5ierRQQ-12" value="" style="endArrow=classic;html=1;strokeColor=#00FFFF;strokeWidth=2;entryX=0;entryY=0.5;entryDx=0;entryDy=0;exitX=1;exitY=0.5;exitDx=0;exitDy=0;exitPerimeter=0;" parent="Zhd3SYQkjJXWE5ierRQQ-1" source="Zhd3SYQkjJXWE5ierRQQ-7" target="Zhd3SYQkjJXWE5ierRQQ-3" edge="1">
                    <mxGeometry width="50" height="50" relative="1" as="geometry">
                        <mxPoint x="180" y="250" as="sourcePoint"/>
                        <mxPoint x="300" y="250" as="targetPoint"/>
                    </mxGeometry>
                </mxCell>
                <mxCell id="Zhd3SYQkjJXWE5ierRQQ-13" value="" style="endArrow=classic;html=1;strokeColor=#00FFFF;strokeWidth=2;entryX=0;entryY=0.5;entryDx=0;entryDy=0;exitX=1;exitY=0.5;exitDx=0;exitDy=0;exitPerimeter=0;" parent="Zhd3SYQkjJXWE5ierRQQ-1" source="Zhd3SYQkjJXWE5ierRQQ-7" target="Zhd3SYQkjJXWE5ierRQQ-6" edge="1">
                    <mxGeometry width="50" height="50" relative="1" as="geometry">
                        <mxPoint x="170" y="240" as="sourcePoint"/>
                        <mxPoint x="300" y="310" as="targetPoint"/>
                    </mxGeometry>
                </mxCell>
                <mxCell id="Zhd3SYQkjJXWE5ierRQQ-14" value="" style="endArrow=classic;html=1;strokeColor=#00FFFF;strokeWidth=2;entryX=0;entryY=0.5;entryDx=0;entryDy=0;exitX=1;exitY=0.5;exitDx=0;exitDy=0;" parent="Zhd3SYQkjJXWE5ierRQQ-1" source="Zhd3SYQkjJXWE5ierRQQ-2" target="Zhd3SYQkjJXWE5ierRQQ-8" edge="1">
                    <mxGeometry width="50" height="50" relative="1" as="geometry">
                        <mxPoint x="180" y="250" as="sourcePoint"/>
                        <mxPoint x="300" y="130" as="targetPoint"/>
                    </mxGeometry>
                </mxCell>
                <mxCell id="Zhd3SYQkjJXWE5ierRQQ-15" value="" style="endArrow=classic;html=1;strokeColor=#00FFFF;strokeWidth=2;entryX=0;entryY=0.5;entryDx=0;entryDy=0;exitX=1;exitY=0.5;exitDx=0;exitDy=0;" parent="Zhd3SYQkjJXWE5ierRQQ-1" source="Zhd3SYQkjJXWE5ierRQQ-4" target="Zhd3SYQkjJXWE5ierRQQ-8" edge="1">
                    <mxGeometry width="50" height="50" relative="1" as="geometry">
                        <mxPoint x="420" y="130" as="sourcePoint"/>
                        <mxPoint x="550" y="250" as="targetPoint"/>
                    </mxGeometry>
                </mxCell>
                <mxCell id="Zhd3SYQkjJXWE5ierRQQ-16" value="" style="endArrow=classic;html=1;strokeColor=#00FFFF;strokeWidth=2;entryX=0;entryY=0.5;entryDx=0;entryDy=0;exitX=1;exitY=0.5;exitDx=0;exitDy=0;" parent="Zhd3SYQkjJXWE5ierRQQ-1" source="Zhd3SYQkjJXWE5ierRQQ-5" target="Zhd3SYQkjJXWE5ierRQQ-8" edge="1">
                    <mxGeometry width="50" height="50" relative="1" as="geometry">
                        <mxPoint x="420" y="190" as="sourcePoint"/>
                        <mxPoint x="550" y="250" as="targetPoint"/>
                    </mxGeometry>
                </mxCell>
                <mxCell id="Zhd3SYQkjJXWE5ierRQQ-17" value="" style="endArrow=classic;html=1;strokeColor=#00FFFF;strokeWidth=2;exitX=1;exitY=0.5;exitDx=0;exitDy=0;entryX=0;entryY=0.5;entryDx=0;entryDy=0;" parent="Zhd3SYQkjJXWE5ierRQQ-1" source="Zhd3SYQkjJXWE5ierRQQ-3" target="Zhd3SYQkjJXWE5ierRQQ-8" edge="1">
                    <mxGeometry width="50" height="50" relative="1" as="geometry">
                        <mxPoint x="420" y="250" as="sourcePoint"/>
                        <mxPoint x="540" y="240" as="targetPoint"/>
                    </mxGeometry>
                </mxCell>
                <mxCell id="Zhd3SYQkjJXWE5ierRQQ-18" value="" style="endArrow=classic;html=1;strokeColor=#00FFFF;strokeWidth=2;exitX=1;exitY=0.5;exitDx=0;exitDy=0;entryX=0;entryY=0.5;entryDx=0;entryDy=0;" parent="Zhd3SYQkjJXWE5ierRQQ-1" source="Zhd3SYQkjJXWE5ierRQQ-6" target="Zhd3SYQkjJXWE5ierRQQ-8" edge="1">
                    <mxGeometry width="50" height="50" relative="1" as="geometry">
                        <mxPoint x="420" y="310" as="sourcePoint"/>
                        <mxPoint x="550" y="250" as="targetPoint"/>
                    </mxGeometry>
                </mxCell>
                <mxCell id="Zhd3SYQkjJXWE5ierRQQ-19" value="&lt;font style=&quot;font-size: 15px&quot; color=&quot;#80ff00&quot;&gt;Map&lt;/font&gt;" style="text;html=1;align=center;verticalAlign=middle;resizable=0;points=[];autosize=1;strokeColor=none;" parent="Zhd3SYQkjJXWE5ierRQQ-1" vertex="1">
                    <mxGeometry x="200" y="140" width="40" height="20" as="geometry"/>
                </mxCell>
            </root>
        </mxGraphModel>
    </diagram>
    <diagram id="QKibWu2TXXxp_fYjxS8l" name="第 3 页">
        <mxGraphModel dx="788" dy="351" grid="1" gridSize="10" guides="1" tooltips="1" connect="1" arrows="1" fold="1" page="1" pageScale="1" pageWidth="827" pageHeight="1169" math="0" shadow="0">
            <root>
                <mxCell id="N5wQxS2H5DkUgVfHd-hu-0"/>
                <mxCell id="N5wQxS2H5DkUgVfHd-hu-1" parent="N5wQxS2H5DkUgVfHd-hu-0"/>
                <mxCell id="8owff1S4-5JRMU0NWtUq-87" value="" style="group" parent="N5wQxS2H5DkUgVfHd-hu-1" vertex="1" connectable="0">
                    <mxGeometry x="10" y="50" width="820" height="420" as="geometry"/>
                </mxCell>
                <mxCell id="8owff1S4-5JRMU0NWtUq-4" value="" style="group" parent="8owff1S4-5JRMU0NWtUq-87" vertex="1" connectable="0">
                    <mxGeometry x="170" y="160" width="630" height="252.5" as="geometry"/>
                </mxCell>
                <mxCell id="8owff1S4-5JRMU0NWtUq-5" value="" style="rounded=1;whiteSpace=wrap;html=1;" parent="8owff1S4-5JRMU0NWtUq-4" vertex="1">
                    <mxGeometry width="630" height="100" as="geometry"/>
                </mxCell>
                <mxCell id="8owff1S4-5JRMU0NWtUq-6" value="&lt;font style=&quot;font-size: 15px&quot;&gt;Hadoop02&lt;/font&gt;" style="rounded=0;whiteSpace=wrap;html=1;strokeWidth=0;strokeColor=none;" parent="8owff1S4-5JRMU0NWtUq-4" vertex="1">
                    <mxGeometry x="535.5" y="5" width="84.8076923076923" height="20" as="geometry"/>
                </mxCell>
                <mxCell id="8owff1S4-5JRMU0NWtUq-45" value="" style="group" parent="8owff1S4-5JRMU0NWtUq-4" vertex="1" connectable="0">
                    <mxGeometry x="284" y="45" width="106" height="45" as="geometry"/>
                </mxCell>
                <mxCell id="8owff1S4-5JRMU0NWtUq-46" value="" style="group" parent="8owff1S4-5JRMU0NWtUq-45" vertex="1" connectable="0">
                    <mxGeometry width="106" height="45" as="geometry"/>
                </mxCell>
                <mxCell id="8owff1S4-5JRMU0NWtUq-59" value="" style="group" parent="8owff1S4-5JRMU0NWtUq-46" vertex="1" connectable="0">
                    <mxGeometry width="106" height="45" as="geometry"/>
                </mxCell>
                <mxCell id="8owff1S4-5JRMU0NWtUq-47" value="&lt;font color=&quot;#000000&quot;&gt;Container&lt;br&gt;&lt;br&gt;&lt;br&gt;&lt;/font&gt;" style="rounded=0;whiteSpace=wrap;html=1;strokeColor=#b85450;strokeWidth=2;fillColor=#f8cecc;" parent="8owff1S4-5JRMU0NWtUq-59" vertex="1">
                    <mxGeometry width="106" height="45" as="geometry"/>
                </mxCell>
                <mxCell id="8owff1S4-5JRMU0NWtUq-48" value="&lt;font color=&quot;#000000&quot;&gt;MapTask&lt;/font&gt;" style="rounded=0;whiteSpace=wrap;html=1;strokeColor=#6c8ebf;strokeWidth=2;fillColor=#dae8fc;" parent="8owff1S4-5JRMU0NWtUq-59" vertex="1">
                    <mxGeometry x="8.83" y="20" width="88.33" height="18.57" as="geometry"/>
                </mxCell>
                <mxCell id="8owff1S4-5JRMU0NWtUq-50" value="&lt;font color=&quot;#000000&quot;&gt;ResourceManager&lt;/font&gt;" style="rounded=0;whiteSpace=wrap;html=1;strokeColor=#36393d;strokeWidth=2;fillColor=#cdeb8b;" parent="8owff1S4-5JRMU0NWtUq-4" vertex="1">
                    <mxGeometry x="50" y="25" width="110" height="35" as="geometry"/>
                </mxCell>
                <mxCell id="8owff1S4-5JRMU0NWtUq-74" style="edgeStyle=orthogonalEdgeStyle;rounded=0;orthogonalLoop=1;jettySize=auto;html=1;exitX=0.5;exitY=1;exitDx=0;exitDy=0;strokeWidth=2;strokeColor=#FFFFFF;entryX=0.5;entryY=1;entryDx=0;entryDy=0;" parent="8owff1S4-5JRMU0NWtUq-4" source="8owff1S4-5JRMU0NWtUq-28" target="8owff1S4-5JRMU0NWtUq-48" edge="1">
                    <mxGeometry relative="1" as="geometry">
                        <mxPoint x="505" y="-50" as="sourcePoint"/>
                        <mxPoint x="330" y="90" as="targetPoint"/>
                        <Array as="points">
                            <mxPoint x="491" y="120"/>
                            <mxPoint x="337" y="120"/>
                        </Array>
                    </mxGeometry>
                </mxCell>
                <mxCell id="8owff1S4-5JRMU0NWtUq-78" value="" style="group" parent="8owff1S4-5JRMU0NWtUq-4" vertex="1" connectable="0">
                    <mxGeometry x="450.0030769230769" y="23.57" width="109.03846153846153" height="60" as="geometry"/>
                </mxCell>
                <mxCell id="8owff1S4-5JRMU0NWtUq-28" value="&lt;font color=&quot;#000000&quot;&gt;&lt;br&gt;&lt;br&gt;具体数据&lt;/font&gt;" style="rounded=0;whiteSpace=wrap;html=1;strokeWidth=0;gradientColor=#ffa500;fillColor=#ffcd28;strokeColor=#d79b00;" parent="8owff1S4-5JRMU0NWtUq-78" vertex="1">
                    <mxGeometry width="109.03846153846153" height="60" as="geometry"/>
                </mxCell>
                <mxCell id="8owff1S4-5JRMU0NWtUq-29" value="DataNode" style="rounded=0;whiteSpace=wrap;html=1;strokeWidth=0;fillColor=#f5f5f5;strokeColor=#666666;fontColor=#333333;" parent="8owff1S4-5JRMU0NWtUq-78" vertex="1">
                    <mxGeometry width="109.03846153846153" height="30" as="geometry"/>
                </mxCell>
                <mxCell id="8owff1S4-5JRMU0NWtUq-86" value="Reduce" style="text;html=1;strokeColor=none;fillColor=none;align=center;verticalAlign=middle;whiteSpace=wrap;rounded=0;" parent="8owff1S4-5JRMU0NWtUq-4" vertex="1">
                    <mxGeometry x="484.52" y="232.5" width="40" height="20" as="geometry"/>
                </mxCell>
                <mxCell id="8owff1S4-5JRMU0NWtUq-32" value="HDFS" style="text;html=1;align=center;verticalAlign=middle;resizable=0;points=[];autosize=1;strokeColor=none;" parent="8owff1S4-5JRMU0NWtUq-87" vertex="1">
                    <mxGeometry x="680" width="50" height="20" as="geometry"/>
                </mxCell>
                <mxCell id="8owff1S4-5JRMU0NWtUq-8" value="" style="rounded=1;whiteSpace=wrap;html=1;" parent="8owff1S4-5JRMU0NWtUq-87" vertex="1">
                    <mxGeometry x="170" y="290" width="630" height="100" as="geometry"/>
                </mxCell>
                <mxCell id="8owff1S4-5JRMU0NWtUq-9" value="&lt;font style=&quot;font-size: 15px&quot;&gt;Hadoop03&lt;/font&gt;" style="rounded=0;whiteSpace=wrap;html=1;strokeWidth=0;strokeColor=none;" parent="8owff1S4-5JRMU0NWtUq-87" vertex="1">
                    <mxGeometry x="705.5" y="295" width="84.8076923076923" height="20" as="geometry"/>
                </mxCell>
                <mxCell id="8owff1S4-5JRMU0NWtUq-30" value="SecondaryName" style="rounded=0;whiteSpace=wrap;html=1;strokeWidth=0;" parent="8owff1S4-5JRMU0NWtUq-87" vertex="1">
                    <mxGeometry x="708.84" y="330" width="91.16" height="20" as="geometry"/>
                </mxCell>
                <mxCell id="8owff1S4-5JRMU0NWtUq-12" value="" style="group" parent="8owff1S4-5JRMU0NWtUq-87" vertex="1" connectable="0">
                    <mxGeometry x="280" y="20" width="540" height="380" as="geometry"/>
                </mxCell>
                <mxCell id="8owff1S4-5JRMU0NWtUq-0" value="" style="rounded=1;whiteSpace=wrap;html=1;" parent="8owff1S4-5JRMU0NWtUq-12" vertex="1">
                    <mxGeometry x="-110" width="630" height="100" as="geometry"/>
                </mxCell>
                <mxCell id="8owff1S4-5JRMU0NWtUq-1" value="&lt;font style=&quot;font-size: 15px&quot;&gt;Hadoop01&lt;/font&gt;" style="rounded=0;whiteSpace=wrap;html=1;strokeWidth=0;strokeColor=none;" parent="8owff1S4-5JRMU0NWtUq-12" vertex="1">
                    <mxGeometry x="447" y="4" width="70" height="20" as="geometry"/>
                </mxCell>
                <mxCell id="8owff1S4-5JRMU0NWtUq-16" value="NameNode" style="rounded=0;whiteSpace=wrap;html=1;strokeWidth=0;" parent="8owff1S4-5JRMU0NWtUq-12" vertex="1">
                    <mxGeometry x="432" y="40" width="77" height="20" as="geometry"/>
                </mxCell>
                <mxCell id="8owff1S4-5JRMU0NWtUq-14" value="" style="group" parent="8owff1S4-5JRMU0NWtUq-12" vertex="1" connectable="0">
                    <mxGeometry x="340" y="20" width="100" height="70" as="geometry"/>
                </mxCell>
                <mxCell id="8owff1S4-5JRMU0NWtUq-15" value="" style="group" parent="8owff1S4-5JRMU0NWtUq-14" vertex="1" connectable="0">
                    <mxGeometry width="100" height="70" as="geometry"/>
                </mxCell>
                <mxCell id="8owff1S4-5JRMU0NWtUq-26" value="" style="group" parent="8owff1S4-5JRMU0NWtUq-15" vertex="1" connectable="0">
                    <mxGeometry width="100" height="70" as="geometry"/>
                </mxCell>
                <mxCell id="8owff1S4-5JRMU0NWtUq-10" value="&lt;font color=&quot;#000000&quot;&gt;&lt;br&gt;&lt;br&gt;具体数据&lt;/font&gt;" style="rounded=0;whiteSpace=wrap;html=1;strokeWidth=0;gradientColor=#ffa500;fillColor=#ffcd28;strokeColor=#d79b00;" parent="8owff1S4-5JRMU0NWtUq-26" vertex="1">
                    <mxGeometry width="90" height="60" as="geometry"/>
                </mxCell>
                <mxCell id="8owff1S4-5JRMU0NWtUq-11" value="DataNode" style="rounded=0;whiteSpace=wrap;html=1;strokeWidth=0;fillColor=#f5f5f5;strokeColor=#666666;fontColor=#333333;" parent="8owff1S4-5JRMU0NWtUq-26" vertex="1">
                    <mxGeometry width="90" height="30" as="geometry"/>
                </mxCell>
                <mxCell id="8owff1S4-5JRMU0NWtUq-43" value="NodeManager" style="rounded=0;whiteSpace=wrap;html=1;strokeColor=#666666;strokeWidth=2;fillColor=#f5f5f5;fontColor=#333333;" parent="8owff1S4-5JRMU0NWtUq-12" vertex="1">
                    <mxGeometry x="50" y="4" width="88" height="30" as="geometry"/>
                </mxCell>
                <mxCell id="8owff1S4-5JRMU0NWtUq-44" value="NodeManager" style="rounded=0;whiteSpace=wrap;html=1;strokeColor=#666666;strokeWidth=2;fillColor=#f5f5f5;fontColor=#333333;" parent="8owff1S4-5JRMU0NWtUq-12" vertex="1">
                    <mxGeometry x="180" y="150" width="88" height="30" as="geometry"/>
                </mxCell>
                <mxCell id="8owff1S4-5JRMU0NWtUq-40" value="" style="group" parent="8owff1S4-5JRMU0NWtUq-12" vertex="1" connectable="0">
                    <mxGeometry x="169" y="40" width="110" height="55" as="geometry"/>
                </mxCell>
                <mxCell id="8owff1S4-5JRMU0NWtUq-41" value="&lt;font color=&quot;#000000&quot;&gt;Container&lt;br&gt;&lt;br&gt;&lt;br&gt;&lt;/font&gt;" style="rounded=0;whiteSpace=wrap;html=1;strokeColor=#b85450;strokeWidth=2;fillColor=#f8cecc;" parent="8owff1S4-5JRMU0NWtUq-40" vertex="1">
                    <mxGeometry width="110" height="55" as="geometry"/>
                </mxCell>
                <mxCell id="8owff1S4-5JRMU0NWtUq-42" value="&lt;font color=&quot;#000000&quot;&gt;MapTask&lt;/font&gt;" style="rounded=0;whiteSpace=wrap;html=1;strokeColor=#6c8ebf;strokeWidth=2;fillColor=#dae8fc;" parent="8owff1S4-5JRMU0NWtUq-40" vertex="1">
                    <mxGeometry x="9.166666666666666" y="31.428571428571427" width="91.66666666666666" height="15.714285714285714" as="geometry"/>
                </mxCell>
                <mxCell id="8owff1S4-5JRMU0NWtUq-37" value="" style="group" parent="8owff1S4-5JRMU0NWtUq-12" vertex="1" connectable="0">
                    <mxGeometry x="44" y="40" width="100" height="55" as="geometry"/>
                </mxCell>
                <mxCell id="8owff1S4-5JRMU0NWtUq-39" value="" style="group" parent="8owff1S4-5JRMU0NWtUq-37" vertex="1" connectable="0">
                    <mxGeometry width="100" height="55" as="geometry"/>
                </mxCell>
                <mxCell id="8owff1S4-5JRMU0NWtUq-34" value="&lt;font color=&quot;#000000&quot;&gt;Container&lt;br&gt;&lt;br&gt;&lt;br&gt;&lt;/font&gt;" style="rounded=0;whiteSpace=wrap;html=1;strokeColor=#b85450;strokeWidth=2;fillColor=#f8cecc;" parent="8owff1S4-5JRMU0NWtUq-39" vertex="1">
                    <mxGeometry width="100" height="55" as="geometry"/>
                </mxCell>
                <mxCell id="8owff1S4-5JRMU0NWtUq-35" value="&lt;font color=&quot;#000000&quot;&gt;AM&lt;/font&gt;" style="rounded=0;whiteSpace=wrap;html=1;strokeColor=#6c8ebf;strokeWidth=2;fillColor=#dae8fc;" parent="8owff1S4-5JRMU0NWtUq-39" vertex="1">
                    <mxGeometry x="8.333333333333332" y="31.42857142857143" width="83.33333333333333" height="15.714285714285715" as="geometry"/>
                </mxCell>
                <mxCell id="8owff1S4-5JRMU0NWtUq-73" style="edgeStyle=orthogonalEdgeStyle;rounded=0;orthogonalLoop=1;jettySize=auto;html=1;exitX=0.5;exitY=1;exitDx=0;exitDy=0;entryX=0.5;entryY=1;entryDx=0;entryDy=0;strokeWidth=2;strokeColor=#FFFFFF;" parent="8owff1S4-5JRMU0NWtUq-12" source="8owff1S4-5JRMU0NWtUq-10" target="8owff1S4-5JRMU0NWtUq-41" edge="1">
                    <mxGeometry relative="1" as="geometry"/>
                </mxCell>
                <mxCell id="8owff1S4-5JRMU0NWtUq-31" value="" style="rounded=0;whiteSpace=wrap;html=1;strokeWidth=2;fillColor=none;strokeColor=#00FF00;" parent="8owff1S4-5JRMU0NWtUq-87" vertex="1">
                    <mxGeometry x="600" width="210" height="420" as="geometry"/>
                </mxCell>
                <mxCell id="8owff1S4-5JRMU0NWtUq-49" value="NodeManager" style="rounded=0;whiteSpace=wrap;html=1;strokeColor=#666666;strokeWidth=2;fillColor=#f5f5f5;fontColor=#333333;" parent="8owff1S4-5JRMU0NWtUq-87" vertex="1">
                    <mxGeometry x="469" y="300" width="88" height="30" as="geometry"/>
                </mxCell>
                <mxCell id="8owff1S4-5JRMU0NWtUq-51" value="" style="endArrow=classic;html=1;strokeColor=#00FFFF;strokeWidth=2;entryX=0;entryY=0.5;entryDx=0;entryDy=0;exitX=0.25;exitY=0;exitDx=0;exitDy=0;" parent="8owff1S4-5JRMU0NWtUq-87" source="8owff1S4-5JRMU0NWtUq-50" target="8owff1S4-5JRMU0NWtUq-43" edge="1">
                    <mxGeometry width="50" height="50" relative="1" as="geometry">
                        <mxPoint x="230" y="190" as="sourcePoint"/>
                        <mxPoint x="280" y="140" as="targetPoint"/>
                    </mxGeometry>
                </mxCell>
                <mxCell id="8owff1S4-5JRMU0NWtUq-52" value="" style="endArrow=classic;html=1;strokeColor=#00FFFF;strokeWidth=2;entryX=0;entryY=0.5;entryDx=0;entryDy=0;exitX=1;exitY=0.5;exitDx=0;exitDy=0;" parent="8owff1S4-5JRMU0NWtUq-87" source="8owff1S4-5JRMU0NWtUq-50" target="8owff1S4-5JRMU0NWtUq-44" edge="1">
                    <mxGeometry width="50" height="50" relative="1" as="geometry">
                        <mxPoint x="240" y="200" as="sourcePoint"/>
                        <mxPoint x="340" y="49" as="targetPoint"/>
                    </mxGeometry>
                </mxCell>
                <mxCell id="8owff1S4-5JRMU0NWtUq-53" value="" style="endArrow=classic;html=1;strokeColor=#00FFFF;strokeWidth=2;entryX=0;entryY=0.25;entryDx=0;entryDy=0;exitX=0.25;exitY=1;exitDx=0;exitDy=0;" parent="8owff1S4-5JRMU0NWtUq-87" source="8owff1S4-5JRMU0NWtUq-50" target="8owff1S4-5JRMU0NWtUq-49" edge="1">
                    <mxGeometry width="50" height="50" relative="1" as="geometry">
                        <mxPoint x="305" y="218.5" as="sourcePoint"/>
                        <mxPoint x="470" y="195" as="targetPoint"/>
                    </mxGeometry>
                </mxCell>
                <mxCell id="8owff1S4-5JRMU0NWtUq-56" style="edgeStyle=orthogonalEdgeStyle;rounded=0;orthogonalLoop=1;jettySize=auto;html=1;exitX=1;exitY=0.5;exitDx=0;exitDy=0;entryX=0;entryY=0.5;entryDx=0;entryDy=0;strokeColor=#00FFFF;strokeWidth=2;" parent="8owff1S4-5JRMU0NWtUq-87" source="8owff1S4-5JRMU0NWtUq-54" target="8owff1S4-5JRMU0NWtUq-50" edge="1">
                    <mxGeometry relative="1" as="geometry"/>
                </mxCell>
                <mxCell id="8owff1S4-5JRMU0NWtUq-54" value="&lt;font color=&quot;#000000&quot;&gt;Client&lt;/font&gt;" style="ellipse;whiteSpace=wrap;html=1;strokeColor=#36393d;strokeWidth=2;fillColor=#ffcc99;" parent="8owff1S4-5JRMU0NWtUq-87" vertex="1">
                    <mxGeometry y="175.5" width="90" height="55" as="geometry"/>
                </mxCell>
                <mxCell id="8owff1S4-5JRMU0NWtUq-60" value="" style="group" parent="8owff1S4-5JRMU0NWtUq-87" vertex="1" connectable="0">
                    <mxGeometry x="460" y="340" width="106" height="45" as="geometry"/>
                </mxCell>
                <mxCell id="8owff1S4-5JRMU0NWtUq-61" value="&lt;font color=&quot;#000000&quot;&gt;Container&lt;br&gt;&lt;br&gt;&lt;br&gt;&lt;/font&gt;" style="rounded=0;whiteSpace=wrap;html=1;strokeColor=#b85450;strokeWidth=2;fillColor=#f8cecc;" parent="8owff1S4-5JRMU0NWtUq-60" vertex="1">
                    <mxGeometry width="106" height="45" as="geometry"/>
                </mxCell>
                <mxCell id="8owff1S4-5JRMU0NWtUq-62" value="&lt;font color=&quot;#000000&quot;&gt;ReduceTask&lt;/font&gt;" style="rounded=0;whiteSpace=wrap;html=1;strokeColor=#6c8ebf;strokeWidth=2;fillColor=#dae8fc;" parent="8owff1S4-5JRMU0NWtUq-60" vertex="1">
                    <mxGeometry x="8.83" y="20" width="88.33" height="18.57" as="geometry"/>
                </mxCell>
                <mxCell id="8owff1S4-5JRMU0NWtUq-69" value="" style="rounded=0;whiteSpace=wrap;html=1;strokeColor=#00FF00;strokeWidth=2;fillColor=none;" parent="8owff1S4-5JRMU0NWtUq-87" vertex="1">
                    <mxGeometry x="200" width="380" height="420" as="geometry"/>
                </mxCell>
                <mxCell id="8owff1S4-5JRMU0NWtUq-70" value="YARN" style="text;html=1;align=center;verticalAlign=middle;resizable=0;points=[];autosize=1;strokeColor=none;" parent="8owff1S4-5JRMU0NWtUq-87" vertex="1">
                    <mxGeometry x="340" width="50" height="20" as="geometry"/>
                </mxCell>
                <mxCell id="8owff1S4-5JRMU0NWtUq-75" style="edgeStyle=orthogonalEdgeStyle;rounded=0;orthogonalLoop=1;jettySize=auto;html=1;exitX=0;exitY=0.5;exitDx=0;exitDy=0;entryX=0;entryY=0.5;entryDx=0;entryDy=0;strokeColor=#FFFFFF;strokeWidth=2;" parent="8owff1S4-5JRMU0NWtUq-87" source="8owff1S4-5JRMU0NWtUq-41" target="8owff1S4-5JRMU0NWtUq-61" edge="1">
                    <mxGeometry relative="1" as="geometry"/>
                </mxCell>
                <mxCell id="8owff1S4-5JRMU0NWtUq-76" style="edgeStyle=orthogonalEdgeStyle;rounded=0;orthogonalLoop=1;jettySize=auto;html=1;exitX=0;exitY=0.5;exitDx=0;exitDy=0;entryX=0;entryY=0.75;entryDx=0;entryDy=0;strokeColor=#FFFFFF;strokeWidth=2;" parent="8owff1S4-5JRMU0NWtUq-87" source="8owff1S4-5JRMU0NWtUq-47" target="8owff1S4-5JRMU0NWtUq-61" edge="1">
                    <mxGeometry relative="1" as="geometry">
                        <Array as="points">
                            <mxPoint x="410" y="228"/>
                            <mxPoint x="410" y="374"/>
                        </Array>
                    </mxGeometry>
                </mxCell>
                <mxCell id="8owff1S4-5JRMU0NWtUq-79" value="" style="group" parent="8owff1S4-5JRMU0NWtUq-87" vertex="1" connectable="0">
                    <mxGeometry x="600.0030769230768" y="310" width="109.03846153846153" height="60" as="geometry"/>
                </mxCell>
                <mxCell id="8owff1S4-5JRMU0NWtUq-80" value="&lt;font color=&quot;#000000&quot;&gt;&lt;br&gt;&lt;br&gt;具体数据&lt;/font&gt;" style="rounded=0;whiteSpace=wrap;html=1;strokeWidth=0;gradientColor=#ffa500;fillColor=#ffcd28;strokeColor=#d79b00;" parent="8owff1S4-5JRMU0NWtUq-79" vertex="1">
                    <mxGeometry width="109.03846153846153" height="60" as="geometry"/>
                </mxCell>
                <mxCell id="8owff1S4-5JRMU0NWtUq-81" value="DataNode" style="rounded=0;whiteSpace=wrap;html=1;strokeWidth=0;fillColor=#f5f5f5;strokeColor=#666666;fontColor=#333333;" parent="8owff1S4-5JRMU0NWtUq-79" vertex="1">
                    <mxGeometry width="109.03846153846153" height="30" as="geometry"/>
                </mxCell>
                <mxCell id="8owff1S4-5JRMU0NWtUq-82" style="edgeStyle=orthogonalEdgeStyle;rounded=0;orthogonalLoop=1;jettySize=auto;html=1;exitX=0.5;exitY=1;exitDx=0;exitDy=0;entryX=0.5;entryY=1;entryDx=0;entryDy=0;strokeColor=#FFFFFF;strokeWidth=2;" parent="8owff1S4-5JRMU0NWtUq-87" source="8owff1S4-5JRMU0NWtUq-61" target="8owff1S4-5JRMU0NWtUq-80" edge="1">
                    <mxGeometry relative="1" as="geometry"/>
                </mxCell>
                <mxCell id="8owff1S4-5JRMU0NWtUq-84" value="Map" style="text;html=1;strokeColor=none;fillColor=none;align=center;verticalAlign=middle;whiteSpace=wrap;rounded=0;" parent="8owff1S4-5JRMU0NWtUq-87" vertex="1">
                    <mxGeometry x="660" y="130" width="40" height="20" as="geometry"/>
                </mxCell>
                <mxCell id="8owff1S4-5JRMU0NWtUq-85" value="Map" style="text;html=1;strokeColor=none;fillColor=none;align=center;verticalAlign=middle;whiteSpace=wrap;rounded=0;" parent="8owff1S4-5JRMU0NWtUq-87" vertex="1">
                    <mxGeometry x="660" y="270" width="40" height="20" as="geometry"/>
                </mxCell>
            </root>
        </mxGraphModel>
    </diagram>
    <diagram id="TkSOuiDhG7gXnJGTXf_r" name="第 4 页">
        <mxGraphModel dx="788" dy="518" grid="1" gridSize="10" guides="1" tooltips="1" connect="1" arrows="1" fold="1" page="1" pageScale="1" pageWidth="827" pageHeight="1169" math="0" shadow="0">
            <root>
                <mxCell id="c9JmsUVUSs5-Liht6Adn-0"/>
                <mxCell id="c9JmsUVUSs5-Liht6Adn-1" parent="c9JmsUVUSs5-Liht6Adn-0"/>
            </root>
        </mxGraphModel>
    </diagram>
</mxfile>